<svg xmlns="http://www.w3.org/2000/svg" xmlns:xlink="http://www.w3.org/1999/xlink" width="500" height="500" viewBox="0 0 500 500"><defs><style>.a{fill:url(#a);}</style><linearGradient id="a" x1="250" y1="407.68" x2="250" y2="29.58" gradientUnits="userSpaceOnUse"><stop offset="0" stop-color="#f15a24"/><stop offset="1" stop-color="#fbb03b"/></linearGradient></defs><title>PsycleLogo</title><path class="a" d="M232.79,336c-9.34-12.82-23-17.81-37.65-21.55-15.42-3.95-30.7-8.44-46-12.69-.57-.16-1.16-.25-1.75-.36l-.77,1.35c4.61,2.95,8.92,6.61,13.89,8.71,11.45,4.84,23.41,8.49,34.79,13.46a122.94,122.94,0,0,1,23.45,12.93c12.75,9.33,14.82,23.3,12.89,37.76-1.64,12.28-7.68,22.84-15.72,32.26-10.43,12.22-24,13.06-38.36,10.73-3.19-.52-6.22-2-10.6-3.45,8-2.75,14.82-4.62,21.24-7.42,12.19-5.31,23.23-12.57,31.16-23.45,12.37-17,9.86-32.11-6.88-45-11.55-8.86-25.18-12.25-39-15.46-37.2-8.64-68.09-27.36-90.37-58.83-6.21-8.76-10.93-18.59-16.29-27.95a14.59,14.59,0,0,1-.68-3.16c23.43,21.8,47.4,41.14,77.23,51.61.6.21,1.44-.28,3.15-.65-55.2-32.56-90-76.35-85.05-143.46C64,169.23,73.3,193.56,96.73,211c-25.17-51.2-24.27-99.1,16.38-142.4-12.94,26-22.49,52.4-7.37,81.18-2.63-22.66-.67-44.3,13.48-63.2C133.13,67.94,151.6,56.45,175,51.48c-6.25,4.16-12.19,7.55-17.5,11.74a71.61,71.61,0,0,0-25.29,39,57.15,57.15,0,0,0-1.72,10.07,175.89,175.89,0,0,0,.63,37.77c2.28,17.15,10.88,31.86,23.85,43.81a93.42,93.42,0,0,0,29.19,18.8c12,4.73,24.5,5.2,38.2,2.67-7,7.6-15.19,10.58-24.07,11.2-8.68.6-17.43.13-26.27.62,7,6,15.61,8,24.35,9.11s17.73,1.69,27.12,2.54c-2.12,2-4.29,4.36-6.75,6.35-7.55,6.12-13.31,13.29-15.74,23-1.9,7.58-.35,14.11,4.14,20.24,7.44,10.18,15.17,20.17,22.08,30.7,3.18,4.86,4.69,10.81,7,16.26ZM340.07,61C348,66.59,355.82,72.8,362.27,80c8.79,9.84,13.14,22,14.7,35.31a92,92,0,0,1-7,47.73c-5.66,13.23-15.9,22.8-26.93,31.59-11.36,9.06-22.79,18-37.63,20.71-4.17.77-8.38,1.41-13.19,2.22,10.73,8.59,23.16,8.57,35.48,9.33-7.71,5.57-16.37,7.64-25.35,7.94s-17.54-1.6-25.08-7.48c1.86,4,4.67,7.18,6.36,10.84,2.93,6.38,6.66,12.91,7.41,19.68,1.62,14.64-3.67,27.58-12.63,39.34-5.24,6.87-9.18,14.72-13.7,22.13l1.12.79,2.23-1.79c7.73-6.25,15-13.11,23.27-18.58,9.94-6.61,19.3-13.6,26.39-23.3,1.45-2,2.8-4,4.2-6.06,1,1.8,1.1,3.15.64,4.27a79.16,79.16,0,0,1-20.67,28.95c-9.1,8.27-18.28,16.59-26.37,25.81-9,10.29-14.91,22.22-14.41,36.72.4,11.49,3.8,21.86,9.28,31.69,10.28,18.43,28.54,25.86,48.8,20,2.4-.69,4.71-1.69,7.07-2.54a5.24,5.24,0,0,0-3-1.73c-18.84-4.48-35.12-13.41-47.63-28.38-7.71-9.22-11.56-19.65-6-31.39,6.44-13.63,18.41-20.77,32.13-25,14.89-4.54,30.29-7.47,45-12.47,35.9-12.2,62.7-35.49,80.53-69,2.07-3.88,3.74-8,5.6-12-43.21,34.87-67.88,50.41-79.75,49a25.37,25.37,0,0,1,2.18-1.55,186.84,186.84,0,0,0,39.32-28.82c15.92-15.33,28.18-33.09,36.07-53.78,5.95-15.59,7.84-31.92,8.35-48.45.1-3.15-.57-6.32-.89-9.48-3.1,27.51-12.72,51.13-35.39,68.29,10.78-23.58,18.59-47.7,16.26-74-2.9-32.67-21.43-58.35-33.54-67.81,1.22,2.4,2.07,4.18,3,5.89,8.9,16.07,13.8,33.17,12.72,51.65-.54,9.08-2.84,17.72-9,25,3.81-24,2.34-46.8-13.55-66.64C363.36,65.68,343.34,54.59,319,49.71,326.4,53.57,333.79,56.49,340.07,61ZM237.18,307.27a69.77,69.77,0,0,1,10-33.56c8.66-14.8,17.87-29.4,19.5-47.1,1.44-15.7-.57-30.54-11.11-43.18-1.06-1.27-2.06-2.59-3.08-3.89l.88-1c13.84,7.61,21,20.46,26.23,34.91a60,60,0,0,0-.74-10.48c-1.59-10.46-7-19-14.23-26.3-3.16-3.2-2.28-5,1.17-6.67l0,0a26.05,26.05,0,0,0,7.24-5.2,18.89,18.89,0,0,0,5.41-8.84c-7.57,8.58-16.92,11.15-27.94,9.29a99,99,0,0,0-17.84-1.53c-4.68.08-10.2.1-13,4.8-2.17,3.64-5.11,5.33-8.75,6.79a18.3,18.3,0,0,0-11,10.82c3.64-.21,6.8-.8,9.88-.51,17.84,1.7,26.81,14.08,18.39,30.5-3,5.83-8.09,10.58-11.73,15.19a38.51,38.51,0,0,0,25.87-15.69,16.3,16.3,0,0,1,.18,6.56c-1.71,7.7-6.05,13.89-11.2,19.73a246,246,0,0,0-16.06,19.7c-5,7-5.35,14.65-.24,21.89,6.85,9.71,13.95,19.23,21.31,29.33A48.13,48.13,0,0,0,237.18,307.27Zm37.41-68.68c-3.15,14-10.58,26.08-17.46,38.43s-11.43,25.46-11.84,39.79c-.54,18.81-1.31,37.6-1.7,56.41a73.61,73.61,0,0,1-10.81,36.89c-5.56,9.27-13.71,15.59-24.28,19.68,9.93,13.85,23.16,20.66,39.38,20.5,15.69-.16,28.14-7.42,37.5-20.24a15.08,15.08,0,0,0-1.57-1.23c-1-.58-2-1.14-3.09-1.63-16.69-7.68-24.67-21.64-27.51-39-1.45-8.83-2.22-17.79-2.79-26.73-1.1-17.19-.9-34.36,6.55-50.38,4-8.58,8.88-16.76,13.45-25.07,8.36-15.25,11.06-31.11,5.45-48.36C275.09,238.23,274.64,238.36,274.59,238.59ZM298.4,391.32c6.39,3.77,22.18.23,27.2-5.11-8.92-1.8-19.08-2.52-28.17-6-10.86-4.2-20.76-10.8-19.53-25.27C272.71,367.13,282.77,382.1,298.4,391.32Zm-133.31-6c11.27,5.1,21.46,11.61,32.56,4.62,11.86-7.48,21.13-17.3,19.8-33.05C209.26,383,187.83,384.18,165.09,385.29Z"/></svg>