<svg xmlns="http://www.w3.org/2000/svg" width="40" height="40" viewBox="0 0 40 40"><defs><style>.a{fill:#fff;}</style></defs><title>cart</title><path class="a" d="M12.92,30.62a3.55,3.55,0,1,0,3.54,3.54A3.53,3.53,0,0,0,12.92,30.62ZM2.29,2.29V5.84H5.84L12.2,19.27,9.81,23.6a3.67,3.67,0,0,0-.43,1.71,3.53,3.53,0,0,0,3.54,3.54H34.16V25.31H13.67a.43.43,0,0,1-.44-.44.46.46,0,0,1,0-.21l1.59-2.89H28.06A3.54,3.54,0,0,0,31.15,20L37.48,8.46a1.64,1.64,0,0,0,.23-.85,1.77,1.77,0,0,0-1.77-1.77H9.76L8.07,2.29ZM30.62,30.62a3.55,3.55,0,1,0,3.54,3.54A3.53,3.53,0,0,0,30.62,30.62Z"/></svg>