<svg xmlns="http://www.w3.org/2000/svg" width="40" height="40" viewBox="0 0 40 40"><defs><style>.a{fill:#fff;}</style></defs><title>delivery</title><path class="a" d="M22,14v.22c0-.07,0-.14,0-.22Z"/><path class="a" d="M22,14v.22c0-.07,0-.14,0-.22Z"/><path class="a" d="M27.05,14h-2.6V10.77H22.21a9.48,9.48,0,0,0-18.81,0H1.29V33.94H6a4.65,4.65,0,0,0,9,0h11a4.65,4.65,0,0,0,9,0h3.64V25.62A11.68,11.68,0,0,0,27.05,14ZM5.85,10.77a7.07,7.07,0,0,1,13.92,0,7,7,0,0,1,.1,1.21,6.89,6.89,0,0,1-.1,1.21,7.06,7.06,0,0,1-13.92,0A6.89,6.89,0,0,1,5.75,12,7,7,0,0,1,5.85,10.77Zm6.61,23.17a2.23,2.23,0,0,1-4.17-1.09,2.24,2.24,0,0,1,2.23-2.22,2.24,2.24,0,0,1,1.78.89,2.19,2.19,0,0,1,.16,2.42ZM22,14.17V31.52H15a4.65,4.65,0,0,0-8.9,0H3.71V14.65A9.49,9.49,0,0,0,22,14.17V14h0C22.07,14,22.05,14.1,22,14.17ZM32.47,33.94a2.22,2.22,0,0,1-4.13-1.15,2.16,2.16,0,0,1,.4-1.27,2.23,2.23,0,0,1,4.05,1.27A2.16,2.16,0,0,1,32.47,33.94Zm3.82-2.42H35a4.64,4.64,0,0,0-8.93,0H24.45V16.37h2.6a9.26,9.26,0,0,1,9.24,9.25Z"/><path class="a" d="M22,14v.22c0-.07,0-.14,0-.22Z"/><polygon class="a" points="12.22 15.64 8.77 12.69 10.1 11.14 12 12.77 15.92 8.2 17.46 9.53 12.22 15.64"/></svg>