<?xml version="1.0" encoding="utf-8"?>
<!-- Generator: Adobe Illustrator 23.0.5, SVG Export Plug-In . SVG Version: 6.00 Build 0)  -->
<svg version="1.1" id="Layer_1" xmlns="http://www.w3.org/2000/svg" xmlns:xlink="http://www.w3.org/1999/xlink" x="0px" y="0px"
	 viewBox="0 0 500 500" style="enable-background:new 0 0 500 500;" xml:space="preserve">
<style type="text/css">
	.st0{fill:url(#SVGID_1_);}
</style>
<linearGradient id="SVGID_1_" gradientUnits="userSpaceOnUse" x1="250.0168" y1="94.32" x2="250.0168" y2="472.4192" gradientTransform="matrix(1 0 0 -1 0 502)">
	<stop  offset="0" style="stop-color:#F15A24"/>
	<stop  offset="1" style="stop-color:#FBB03B"/>
</linearGradient>
<path class="st0" d="M232.8,336c-9.3-12.8-23.1-17.8-37.6-21.5c-15.4-4-30.7-8.4-46-12.7c-0.6-0.2-1.2-0.2-1.7-0.4l-0.8,1.4
	c4.6,2.9,8.9,6.6,13.9,8.7c11.4,4.8,23.4,8.5,34.8,13.5c8.2,3.6,16.3,7.7,23.4,12.9c12.7,9.3,14.8,23.3,12.9,37.8
	C230.1,388,224,398.5,216,408c-10.4,12.2-24,13.1-38.4,10.7c-3.2-0.5-6.2-2-10.6-3.4c8-2.8,14.8-4.6,21.2-7.4
	c12.2-5.3,23.2-12.6,31.2-23.5c12.4-17,9.9-32.1-6.9-45c-11.5-8.9-25.2-12.2-39-15.5c-37.2-8.6-68.1-27.4-90.4-58.8
	c-6.2-8.8-10.9-18.6-16.3-28c-0.4-0.6-0.3-1.5-0.7-3.2c23.4,21.8,47.4,41.1,77.2,51.6c0.6,0.2,1.4-0.3,3.1-0.7
	c-55.2-32.6-90-76.3-85-143.5c2.5,27.8,11.9,52.2,35.3,69.6c-25.2-51.2-24.3-99.1,16.4-142.4c-12.9,26-22.5,52.4-7.4,81.2
	c-2.6-22.7-0.7-44.3,13.5-63.2c13.9-18.6,32.4-30.1,55.7-35.1c-6.2,4.2-12.2,7.5-17.5,11.7c-13,10.2-21.2,23.4-25.3,39
	c-0.9,3.3-1.4,6.7-1.7,10.1c-1.1,12.5-1,25.4,0.6,37.8c2.3,17.2,10.9,31.9,23.9,43.8c8.7,8,18.2,14.5,29.2,18.8
	c12.1,4.7,24.5,5.2,38.2,2.7c-7,7.6-15.2,10.6-24.1,11.2c-8.7,0.6-17.4,0.1-26.3,0.6c7,6,15.6,8,24.4,9.1c8.8,1.2,17.7,1.7,27.1,2.5
	c-2.1,2-4.3,4.4-6.8,6.3c-7.6,6.1-13.3,13.3-15.7,23c-1.9,7.6-0.3,14.1,4.1,20.2c7.4,10.2,15.2,20.2,22.1,30.7
	c3.2,4.9,4.7,10.8,7,16.3C233.7,335.6,233.2,335.8,232.8,336z M340.1,61c7.9,5.6,15.7,11.8,22.2,19.1c8.8,9.8,13.1,22,14.7,35.3
	c2,16.6-0.5,32.5-7,47.7c-5.7,13.2-15.9,22.8-26.9,31.6c-11.4,9.1-22.8,18-37.6,20.7c-4.2,0.8-8.4,1.4-13.2,2.2
	c10.7,8.6,23.2,8.6,35.5,9.3c-7.7,5.6-16.4,7.6-25.4,7.9c-9,0.3-17.5-1.6-25.1-7.5c1.9,4,4.7,7.2,6.4,10.8
	c2.9,6.4,6.7,12.9,7.4,19.7c1.6,14.6-3.7,27.6-12.6,39.3c-5.2,6.9-9.2,14.7-13.7,22.1c0.4,0.3,0.7,0.5,1.1,0.8
	c0.7-0.6,1.5-1.2,2.2-1.8c7.7-6.2,15-13.1,23.3-18.6c9.9-6.6,19.3-13.6,26.4-23.3c1.5-2,2.8-4,4.2-6.1c1,1.8,1.1,3.2,0.6,4.3
	c-4.6,11.3-11.6,20.7-20.7,28.9c-9.1,8.3-18.3,16.6-26.4,25.8c-9,10.3-14.9,22.2-14.4,36.7c0.4,11.5,3.8,21.9,9.3,31.7
	c10.3,18.4,28.5,25.9,48.8,20c2.4-0.7,4.7-1.7,7.1-2.5c-1.1-1.2-2.1-1.5-3-1.7c-18.8-4.5-35.1-13.4-47.6-28.4
	c-7.7-9.2-11.6-19.7-6-31.4c6.4-13.6,18.4-20.8,32.1-25c14.9-4.5,30.3-7.5,45-12.5c35.9-12.2,62.7-35.5,80.5-69
	c2.1-3.9,3.7-8,5.6-12c-43.2,34.9-67.9,50.4-79.7,49c0.9-0.7,1.5-1.2,2.2-1.6c14.3-7.9,27.5-17.4,39.3-28.8
	c15.9-15.3,28.2-33.1,36.1-53.8c5.9-15.6,7.8-31.9,8.3-48.5c0.1-3.1-0.6-6.3-0.9-9.5c-3.1,27.5-12.7,51.1-35.4,68.3
	c10.8-23.6,18.6-47.7,16.3-74c-2.9-32.7-21.4-58.3-33.5-67.8c1.2,2.4,2.1,4.2,3,5.9c8.9,16.1,13.8,33.2,12.7,51.6
	c-0.5,9.1-2.8,17.7-9,25c3.8-24,2.3-46.8-13.5-66.6c-15.3-19.1-35.3-30.2-59.7-35.1C326.4,53.6,333.8,56.5,340.1,61z M237.2,307.3
	c0.4-12.1,4-23.2,10-33.6c8.7-14.8,17.9-29.4,19.5-47.1c1.4-15.7-0.6-30.5-11.1-43.2c-1.1-1.3-2.1-2.6-3.1-3.9
	c0.5-0.6,0.4-0.5,0.9-1c13.8,7.6,21,20.5,26.2,34.9c0.1-3.6-0.2-7.1-0.7-10.5c-1.6-10.5-7-19-14.2-26.3c-3.2-3.2-2.3-5,1.2-6.7l0,0
	c2.7-1.3,5.2-3.1,7.2-5.2c2.8-2.9,4.3-5,5.4-8.8c-7.6,8.6-16.9,11.1-27.9,9.3c-5.9-1-11.9-1.6-17.8-1.5c-4.7,0.1-10.2,0.1-13,4.8
	c-2.2,3.6-5.1,5.3-8.7,6.8c-5,2-8.9,5.3-11,10.8c3.6-0.2,6.8-0.8,9.9-0.5c17.8,1.7,26.8,14.1,18.4,30.5c-3,5.8-8.1,10.6-11.7,15.2
	c9.8-1.4,18.9-6.3,25.9-15.7c0.5,2.4,0.6,4.6,0.2,6.6c-1.7,7.7-6.1,13.9-11.2,19.7c-5.6,6.4-11.1,12.8-16.1,19.7
	c-5,7-5.3,14.7-0.2,21.9c6.8,9.7,13.9,19.2,21.3,29.3C236.7,310.8,237.1,309.1,237.2,307.3z M274.6,238.6
	c-3.2,14-10.6,26.1-17.5,38.4s-11.4,25.5-11.8,39.8c-0.5,18.8-1.3,37.6-1.7,56.4c-0.3,13.3-4,25.6-10.8,36.9
	c-5.6,9.3-13.7,15.6-24.3,19.7c9.9,13.9,23.2,20.7,39.4,20.5c15.7-0.2,28.1-7.4,37.5-20.2c-0.8-0.6-1.2-1-1.6-1.2
	c-1-0.6-2-1.1-3.1-1.6c-16.7-7.7-24.7-21.6-27.5-39c-1.4-8.8-2.2-17.8-2.8-26.7c-1.1-17.2-0.9-34.4,6.5-50.4
	c4-8.6,8.9-16.8,13.4-25.1c8.4-15.2,11.1-31.1,5.5-48.4C275.1,238.2,274.6,238.4,274.6,238.6z M298.4,391.3
	c6.4,3.8,22.2,0.2,27.2-5.1c-8.9-1.8-19.1-2.5-28.2-6c-10.9-4.2-20.8-10.8-19.5-25.3C272.7,367.1,282.8,382.1,298.4,391.3z
	 M165.1,385.3c11.3,5.1,21.5,11.6,32.6,4.6c11.9-7.5,21.1-17.3,19.8-33C209.3,382.9,187.8,384.2,165.1,385.3z"/>
</svg>
