<svg xmlns="http://www.w3.org/2000/svg" width="40" height="40" viewBox="0 0 40 40"><defs><style>.a{fill:#fff;}</style></defs><title>info</title><path class="a" d="M21.65,14.26c.38.07.77.1,1.14.2a2.14,2.14,0,0,1,1.64,2.06,6,6,0,0,1-.5,2.59c-1.12,2.9-2.25,5.79-3.36,8.7A10.86,10.86,0,0,0,20.24,29a.69.69,0,0,0,0,.35.44.44,0,0,0,.54.38,2,2,0,0,0,.59-.22,6.84,6.84,0,0,0,1.39-1.19c.46-.48.9-1,1.36-1.44a4.81,4.81,0,0,1,.48-.42.34.34,0,0,1,.48,0,.55.55,0,0,1,.19.65,4,4,0,0,1-.39.74,10.9,10.9,0,0,1-1.85,2,13.79,13.79,0,0,1-4.48,2.75A6.38,6.38,0,0,1,16,33a4.28,4.28,0,0,1-.87-.15,2,2,0,0,1-1.39-2.13,10.18,10.18,0,0,1,.5-2.56c.46-1.52,1.11-3,1.71-4.42l2.34-5.65a2,2,0,0,0,.14-.48.55.55,0,0,0-.7-.65,2.13,2.13,0,0,0-.74.32,8.32,8.32,0,0,0-1.09,1c-.5.5-1,1-1.44,1.56a5.17,5.17,0,0,1-.56.49.42.42,0,0,1-.54,0,.48.48,0,0,1-.22-.55,1.64,1.64,0,0,1,.23-.48,7.71,7.71,0,0,1,.67-.84,14.56,14.56,0,0,1,3.43-2.92A9.06,9.06,0,0,1,21.65,14.26Z"/><path class="a" d="M23.51,12.88a3.56,3.56,0,0,1-1.33-.23A2.55,2.55,0,0,1,20.6,10,3.32,3.32,0,0,1,23.5,7,3.27,3.27,0,0,1,25,7.16a2.6,2.6,0,0,1,1.8,2.95,3.27,3.27,0,0,1-2.75,2.71Z"/><path class="a" d="M20,38.38A18.38,18.38,0,1,1,38.38,20,18.4,18.4,0,0,1,20,38.38Zm0-36A17.63,17.63,0,1,0,37.63,20,17.63,17.63,0,0,0,20,2.38Z"/></svg>