<svg xmlns="http://www.w3.org/2000/svg" width="40" height="40" viewBox="0 0 40 40"><defs><style>.a{fill:#fff;}</style></defs><title>insights</title><path class="a" d="M30.09,9.68c-.11.31.07.49.36.69q2.07,1.37,4.11,2.78a.44.44,0,0,0,.53,0,2.08,2.08,0,0,1,2.75.73,2.19,2.19,0,0,1-.5,2.79A2.11,2.11,0,0,1,34,14.75a.52.52,0,0,0-.18-.39q-2.16-1.5-4.35-3a.52.52,0,0,0-.47,0A2.08,2.08,0,0,1,26.47,11a.41.41,0,0,0-.5-.12l-5,1.46a.56.56,0,0,0-.46.49,2,2,0,0,1-2.27,1.59,2.06,2.06,0,0,1-1.84-2.08.62.62,0,0,0-.4-.63l-3.5-2a.36.36,0,0,0-.5,0,2.05,2.05,0,0,1-2,.41.58.58,0,0,0-.45.06Q7.53,11.6,5.51,13.08a.56.56,0,0,0-.14.43A2.06,2.06,0,0,1,4.2,15.7a2.19,2.19,0,0,1-2.43-.46,2.12,2.12,0,0,1,1.89-3.53.61.61,0,0,1,.24.06c.46.34.81.16,1.21-.14C6.23,10.78,7.39,10,8.53,9.16a.34.34,0,0,0,.16-.44,2.09,2.09,0,1,1,4-1,.87.87,0,0,0,.51.72c1.2.68,2.39,1.38,3.58,2.08a.51.51,0,0,0,.63,0,2,2,0,0,1,2.59.35.55.55,0,0,0,.46.12c1.69-.47,3.37-1,5.05-1.46A.49.49,0,0,0,26,9.1a2.1,2.1,0,0,1,4.14.58Z"/><path class="a" d="M25,26V17.3c0-.66.15-.82.8-.82,1.16,0,2.32,0,3.47,0,.64,0,.8.16.8.79q0,8.78,0,17.55c0,.66-.16.82-.81.82H25.78c-.64,0-.79-.15-.79-.79Z"/><path class="a" d="M13.2,26.08v8.73c0,.7-.13.83-.82.83H8.91c-.6,0-.77-.16-.77-.77V17.28c0-.64.17-.8.79-.8,1.15,0,2.29,0,3.43,0,.71,0,.84.13.84.86Z"/><path class="a" d="M21.47,28.08v6.69c0,.75-.13.87-.88.87H17.21c-.64,0-.8-.16-.8-.78V21.28c0-.63.17-.8.79-.8,1.16,0,2.31,0,3.47,0,.62,0,.79.17.8.79Z"/><path class="a" d="M5.83,29.39v5.39c0,.74-.12.87-.84.87H1.56c-.63,0-.79-.17-.79-.8,0-3.66,0-7.33,0-11,0-.63.17-.8.79-.8H5.07c.61,0,.76.15.76.77Z"/><path class="a" d="M38.55,29.39v5.48c0,.64-.13.77-.79.78H34.3c-.63,0-.78-.15-.78-.76V23.82c0-.62.15-.76.78-.76h3.42c.72,0,.83.12.83.82Z"/></svg>