<svg xmlns="http://www.w3.org/2000/svg" width="40" height="40" viewBox="0 0 40 40"><defs><style>.a{fill:#fff;}</style></defs><title>logout</title><path class="a" d="M3.47,21.65a16.55,16.55,0,0,1,7.37-14,2.46,2.46,0,0,1,3.57.58,2.57,2.57,0,0,1-.79,3.56C10,14.38,8.11,17.88,8.52,22.35a11.18,11.18,0,0,0,6.7,9.55,11.51,11.51,0,0,0,16.12-8.38c.86-4.77-.81-8.59-4.63-11.51a5.57,5.57,0,0,1-.76-.6,2.37,2.37,0,0,1-.17-3.32A2.33,2.33,0,0,1,29,7.57a16.27,16.27,0,0,1,7.43,12A16.7,16.7,0,0,1,20.91,38a16.65,16.65,0,0,1-17-13C3.66,23.74,3.58,22.49,3.47,21.65Z"/><path class="a" d="M22.48,12.22c0,2.52,0,5,0,7.57a2.48,2.48,0,1,1-4.95.08q0-7.58,0-15.14A2.5,2.5,0,0,1,19.35,2.1a2.35,2.35,0,0,1,2.72,1.07,3.3,3.3,0,0,1,.39,1.48C22.5,7.17,22.48,9.7,22.48,12.22Z"/></svg>