<svg xmlns="http://www.w3.org/2000/svg" width="40" height="40" viewBox="0 0 40 40"><defs><style>.a{fill:#fff;}</style></defs><title>orders</title><path class="a" d="M11.33,3.7a13,13,0,0,0,.35,1.91A2.64,2.64,0,0,0,14.4,7.5H25a3,3,0,0,0,3.31-3.35V3.83c1.64,0,3.26-.12,4.86,0a3.33,3.33,0,0,1,3,3.11,13.24,13.24,0,0,1,.12,1.66q0,12,0,24.09c0,3.61-1.19,4.8-4.83,4.8H8.31c-3.42,0-4.59-1.17-4.59-4.57q0-12.48,0-25a8.31,8.31,0,0,1,.16-1.65C4.19,4.75,5.2,3.92,7,3.73a5.77,5.77,0,0,1,.72,0Zm8.61,15.75h-8c-.89,0-1.4.46-1.4,1.25S11,22,11.88,22h16a1.45,1.45,0,0,0,1.59-1.32c0-.74-.61-1.2-1.55-1.2Zm-.28,6.68h-8.1a1.2,1.2,0,0,0-1.26.76,1.16,1.16,0,0,0,.5,1.45,2,2,0,0,0,1.1.32c5.24,0,10.49,0,15.73,0,.95,0,1.51-.5,1.51-1.33s-.56-1.2-1.53-1.2ZM20,12.57c-2.73,0-5.45,0-8.18,0a1.19,1.19,0,0,0-1.3,1.27,1.17,1.17,0,0,0,1.31,1.26h16a1.42,1.42,0,0,0,1.56-1.34c0-.74-.61-1.19-1.57-1.2Z"/><path class="a" d="M19.92,2.47c1.19,0,2.39,0,3.58,0a1.71,1.71,0,0,1,1.84,1.83,1.75,1.75,0,0,1-1.86,1.92c-2.44,0-4.87,0-7.31,0A1.76,1.76,0,0,1,14.32,4.3a1.72,1.72,0,0,1,1.86-1.82C17.43,2.46,18.67,2.47,19.92,2.47Z"/></svg>