<svg xmlns="http://www.w3.org/2000/svg" width="40" height="40" viewBox="0 0 40 40"><defs><style>.a{fill:#fff;}.b{fill:#f40;}.c{fill:#d9d9d9;}</style></defs><title>pdfdwnldicn</title><path class="a" d="M31.86,9V23.2a8.14,8.14,0,0,0-9.82.46h-13a.47.47,0,0,0,0,.94h12a7.64,7.64,0,0,0-1,1.42h-11a.47.47,0,0,0-.47.47.48.48,0,0,0,.47.48H19.67a7.38,7.38,0,0,0-.41,1.41H9.08a.48.48,0,0,0,0,.95H19.14a5.68,5.68,0,0,0,0,.59,7.37,7.37,0,0,0,.05.82H9.08a.48.48,0,0,0,0,1H19.31a8,8,0,0,0,1.4,3.07h-9a6,6,0,0,1-6-6V9a6,6,0,0,1,6-6h14.2A6,6,0,0,1,31.86,9Z"/><path class="b" d="M19.82,14.51v.12a4.31,4.31,0,0,1-4.31,4.31H5.66V10.2h9.85A4.31,4.31,0,0,1,19.82,14.51Z"/><path class="a" d="M31.86,24.53A7.08,7.08,0,0,0,21.34,26a7.91,7.91,0,0,0-.52.95,6.7,6.7,0,0,0-.48,1.41c-.06.31-.11.63-.14.95s0,.39,0,.59a5.56,5.56,0,0,0,.05.82,5.9,5.9,0,0,0,.17,1,7.13,7.13,0,0,0,1.69,3.07,7.08,7.08,0,1,0,9.77-10.23Zm-4.54,9.93-2.54-4.4h1.71V26.57h1.65v3.49h1.72Z"/><path class="c" d="M31.86,23.2v1.33A7.08,7.08,0,0,0,21.34,26a7.91,7.91,0,0,0-.52.95,6.7,6.7,0,0,0-.48,1.41c-.06.31-.11.63-.14.95s0,.39,0,.59a5.56,5.56,0,0,0,.05.82,5.9,5.9,0,0,0,.17,1,7.13,7.13,0,0,0,1.69,3.07H20.71a8,8,0,0,1-1.4-3.07H9.08a.48.48,0,0,1,0-1H19.16a7.37,7.37,0,0,1-.05-.82,5.68,5.68,0,0,1,0-.59H9.08a.48.48,0,0,1,0-.95H19.26A7.38,7.38,0,0,1,19.67,27H9.08a.48.48,0,0,1-.47-.48A.47.47,0,0,1,9.08,26h11a7.64,7.64,0,0,1,1-1.42h-12a.47.47,0,0,1,0-.94H22a8.14,8.14,0,0,1,9.82-.46Z"/><path class="a" d="M10.66,14.06a1.22,1.22,0,0,1-1.24,1.22H8.88V16.4H8.07V12.84H9.42A1.22,1.22,0,0,1,10.66,14.06Zm-.81,0a.43.43,0,0,0-.43-.46H8.88v.92h.54A.43.43,0,0,0,9.85,14.06Z"/><path class="a" d="M14.22,14.62a1.73,1.73,0,0,1-1.73,1.78H11.06V12.84h1.43A1.72,1.72,0,0,1,14.22,14.62Zm-.79,0a.91.91,0,0,0-.94-1h-.61v2h.61A.91.91,0,0,0,13.43,14.62Z"/><path class="a" d="M15.48,13.62v.69H16.8v.78H15.48V16.4h-.81V12.84h2.16v.78Z"/><polygon class="b" points="29.86 30.06 27.32 34.46 24.78 30.06 26.49 30.06 26.49 26.57 28.14 26.57 28.14 30.06 29.86 30.06"/></svg>