<svg xmlns="http://www.w3.org/2000/svg" width="500" height="500" viewBox="0 0 500 500"><defs><style>.a{fill:#f4ffe6;}.b{fill:#91ff50;}.c{fill:none;stroke:#fff;stroke-linecap:round;stroke-linejoin:round;stroke-width:5px;}.d{fill:orange;}</style></defs><title>Sucessful</title><rect class="a" x="42" y="137.5" width="416" height="223" rx="29.07"/><circle class="b" cx="249.5" cy="137.75" r="60"/><polyline class="c" points="273.5 121.75 241.5 153.75 225.5 137.75"/><path class="d" d="M114.34,248.94l7.4-4.29a7.87,7.87,0,0,0,7.89,5.21c4.07,0,5.09-1.61,5.09-3.06,0-2.31-2.14-3.22-7.78-4.77s-11-4.24-11-11.43,6.11-11.42,12.6-11.42a14.56,14.56,0,0,1,13.73,8.47L135,231.89c-1.29-2.68-3.06-4.35-6.49-4.35-2.68,0-4,1.35-4,2.85,0,1.71.91,2.89,6.76,4.66,5.68,1.72,12.06,3.7,12.06,11.64,0,7.24-5.79,11.53-13.94,11.53C121.47,258.22,116.43,254.47,114.34,248.94Z"/><path class="d" d="M172.69,230.66v26.81h-8V255c-1.45,2-4.13,3.27-7.67,3.27-5.42,0-10-3.86-10-11.1V230.66h8v15.28c0,3.33,2.1,4.88,4.67,4.88,3,0,5-1.71,5-5.52V230.66Z"/><path class="d" d="M177.25,244.06a14.18,14.18,0,0,1,26.33-7.29l-7,4.08a5.55,5.55,0,0,0-5.2-3,6.23,6.23,0,0,0,0,12.45,5.5,5.5,0,0,0,5.2-3l7,4a13.66,13.66,0,0,1-12.12,6.92A13.89,13.89,0,0,1,177.25,244.06Z"/><path class="d" d="M204.92,244.06a14.19,14.19,0,0,1,26.34-7.29l-7,4.08a5.55,5.55,0,0,0-5.2-3,6.23,6.23,0,0,0,0,12.45,5.5,5.5,0,0,0,5.2-3l7,4a13.69,13.69,0,0,1-12.12,6.92A13.89,13.89,0,0,1,204.92,244.06Z"/><path class="d" d="M247.56,251a7,7,0,0,0,5.15-2l6.44,3.7c-2.63,3.65-6.6,5.52-11.7,5.52-9.17,0-14.85-6.16-14.85-14.16s5.79-14.16,14.26-14.16c7.83,0,13.63,6.07,13.63,14.16a15.91,15.91,0,0,1-.32,3.22h-19C242.14,250.07,244.61,251,247.56,251Zm4.94-9.77a5.52,5.52,0,0,0-5.69-4.23c-3.06,0-5.09,1.5-5.85,4.23Z"/><path class="d" d="M284.78,249.43c0,6.17-5.36,8.79-11.15,8.79-5.37,0-9.44-2-11.54-6.38l7-4a4.4,4.4,0,0,0,4.56,3.17c1.93,0,2.89-.59,2.89-1.67,0-3-13.19-1.39-13.19-10.67,0-5.85,4.93-8.8,10.51-8.8a11.76,11.76,0,0,1,10.46,5.74l-6.87,3.7a3.9,3.9,0,0,0-3.59-2.36c-1.39,0-2.25.54-2.25,1.51C271.59,241.54,284.78,239.5,284.78,249.43Z"/><path class="d" d="M308.27,249.43c0,6.17-5.36,8.79-11.15,8.79-5.37,0-9.44-2-11.54-6.38l7-4a4.4,4.4,0,0,0,4.56,3.17c1.93,0,2.89-.59,2.89-1.67,0-3-13.19-1.39-13.19-10.67,0-5.85,4.93-8.8,10.51-8.8a11.76,11.76,0,0,1,10.46,5.74l-6.87,3.7a3.9,3.9,0,0,0-3.59-2.36c-1.39,0-2.25.54-2.25,1.51C295.08,241.54,308.27,239.5,308.27,249.43Z"/><path class="d" d="M321.79,230.66h5v7.72h-5v19.09h-8.05V238.38h-3.59v-7.72h3.59c0-7.51,4.13-12,13-11.48v7.72C323.77,226.63,321.79,227.54,321.79,230.66Z"/><path class="d" d="M355.09,230.66v26.81h-8V255c-1.45,2-4.13,3.27-7.67,3.27-5.42,0-10-3.86-10-11.1V230.66h8v15.28c0,3.33,2.09,4.88,4.67,4.88,2.95,0,5-1.71,5-5.52V230.66Z"/><path class="d" d="M361,218.32H369v39.15H361Z"/><path class="d" d="M374.4,253.13a5.1,5.1,0,1,1,5.09,5.09A5.13,5.13,0,0,1,374.4,253.13Zm.27-22.47V219.93h9.65v10.73l-1.61,13.4h-6.44Z"/><path class="d" d="M167.21,283.69l-2.46-8.8H166l2,7.24,2.14-7.24h1.19l2.13,7.24,2-7.24h1.16l-2.46,8.8h-1.36l-2.09-7.05-2.1,7.05Z"/><path class="d" d="M177.86,281.05a2.11,2.11,0,0,0,.77,1.31,2.43,2.43,0,0,0,1.51.47,2,2,0,0,0,1.81-.92l.93.53a3.09,3.09,0,0,1-2.77,1.42,3.29,3.29,0,0,1-2.43-.94,3.48,3.48,0,0,1,0-4.74,3.16,3.16,0,0,1,2.38-.94,2.87,2.87,0,0,1,2.25,1,3.38,3.38,0,0,1,.88,2.35,2.77,2.77,0,0,1,0,.49Zm2.18-2.78a2.16,2.16,0,0,0-1.46.5,2.11,2.11,0,0,0-.72,1.32h4.2a2.11,2.11,0,0,0-.7-1.35A2,2,0,0,0,180,278.27Z"/><path class="d" d="M184.43,283.69v-9.18h1.09v9.18Z"/><path class="d" d="M190.15,283.86a3.18,3.18,0,0,1-2.36-.95,3.41,3.41,0,0,1,0-4.72,3.18,3.18,0,0,1,2.36-.95,3.14,3.14,0,0,1,1.67.45,2.68,2.68,0,0,1,1.11,1.2l-.92.53a1.84,1.84,0,0,0-.73-.81,2.17,2.17,0,0,0-1.13-.3,2.12,2.12,0,0,0-1.58.64,2.19,2.19,0,0,0-.63,1.6,2.15,2.15,0,0,0,.63,1.58,2.26,2.26,0,0,0,2.71.35,2,2,0,0,0,.77-.8l.93.54a3,3,0,0,1-1.16,1.19A3.19,3.19,0,0,1,190.15,283.86Z"/><path class="d" d="M199.28,282.9a3.34,3.34,0,0,1-4.69,0,3.31,3.31,0,0,1,2.34-5.66,3.21,3.21,0,0,1,2.35,1,3.33,3.33,0,0,1,0,4.7Zm-2.35-.11a2.2,2.2,0,0,0,1.59-.64,2.24,2.24,0,0,0-1.59-3.84,2.13,2.13,0,0,0-1.57.64,2.24,2.24,0,0,0,1.57,3.84Z"/><path class="d" d="M208.34,277.24a2.26,2.26,0,0,1,1.71.68,2.58,2.58,0,0,1,.66,1.86v3.91h-1.1v-3.87a1.57,1.57,0,0,0-.37-1.13,1.33,1.33,0,0,0-1-.41,1.46,1.46,0,0,0-1.13.47,2.15,2.15,0,0,0-.42,1.45v3.49h-1.09v-3.87a1.61,1.61,0,0,0-.36-1.13,1.24,1.24,0,0,0-1-.41,1.53,1.53,0,0,0-1.15.48,2,2,0,0,0-.46,1.44v3.49h-1.09V277.4h1.09v.85a2.08,2.08,0,0,1,1.88-1,2,2,0,0,1,1.85,1.07A2.15,2.15,0,0,1,208.34,277.24Z"/><path class="d" d="M213,281.05a2.11,2.11,0,0,0,.77,1.31,2.43,2.43,0,0,0,1.51.47,2,2,0,0,0,1.81-.92l.93.53a3.09,3.09,0,0,1-2.77,1.42,3.29,3.29,0,0,1-2.43-.94,3.48,3.48,0,0,1,0-4.74,3.15,3.15,0,0,1,2.37-.94,2.88,2.88,0,0,1,2.26,1,3.38,3.38,0,0,1,.88,2.35,4.22,4.22,0,0,1,0,.49Zm2.17-2.78a2.15,2.15,0,0,0-1.45.5,2.11,2.11,0,0,0-.72,1.32h4.2a2.11,2.11,0,0,0-.7-1.35A2,2,0,0,0,215.17,278.27Z"/><path class="d" d="M226.13,278.46h-1.67v3.41a1,1,0,0,0,.18.66.73.73,0,0,0,.56.2c.25,0,.56,0,.93,0v1a3.23,3.23,0,0,1-2.1-.23,1.74,1.74,0,0,1-.66-1.59v-3.41h-1.25V277.4h1.25V276l1.09-.33v1.76h1.67Z"/><path class="d" d="M232.42,282.9a3.31,3.31,0,1,1,0-4.7,3.33,3.33,0,0,1,0,4.7Zm-2.35-.11a2.26,2.26,0,0,0,1.59-3.84,2.16,2.16,0,0,0-1.59-.64,2.13,2.13,0,0,0-1.57.64,2.24,2.24,0,0,0,1.57,3.84Z"/><path class="d" d="M241.26,278.46h-1.68v3.41a.91.91,0,0,0,.19.66.71.71,0,0,0,.55.2c.26,0,.57,0,.94,0v1a3.25,3.25,0,0,1-2.11-.23,1.74,1.74,0,0,1-.66-1.59v-3.41h-1.25V277.4h1.25V276l1.09-.33v1.76h1.68Z"/><path class="d" d="M245.68,277.24a2.34,2.34,0,0,1,1.78.7,2.63,2.63,0,0,1,.67,1.89v3.86H247v-3.8a1.63,1.63,0,0,0-.41-1.18,1.52,1.52,0,0,0-1.15-.43,1.77,1.77,0,0,0-1.32.51,2.13,2.13,0,0,0-.5,1.57v3.33h-1.1v-8.8h1.1v3.42A2.23,2.23,0,0,1,245.68,277.24Z"/><path class="d" d="M250.42,281.05a2,2,0,0,0,.77,1.31,2.42,2.42,0,0,0,1.5.47,2,2,0,0,0,1.81-.92l.94.53a3.1,3.1,0,0,1-2.77,1.42,3.33,3.33,0,0,1-2.44-.94,3.51,3.51,0,0,1,0-4.74,3.19,3.19,0,0,1,2.38-.94,2.89,2.89,0,0,1,2.26,1,3.42,3.42,0,0,1,.87,2.35,4.15,4.15,0,0,1,0,.49Zm2.17-2.78a2.17,2.17,0,0,0-1.46.5,2.15,2.15,0,0,0-.71,1.32h4.2a2.07,2.07,0,0,0-.71-1.35A2,2,0,0,0,252.59,278.27Z"/><path class="d" d="M263.44,274.89a2.85,2.85,0,0,1,2,4.84,2.73,2.73,0,0,1-2,.82h-2v3.14h-1.17v-8.8Zm0,4.56a1.58,1.58,0,0,0,1.2-.49,1.85,1.85,0,0,0,0-2.49,1.58,1.58,0,0,0-1.2-.49h-2v3.47Z"/><path class="d" d="M268.11,279.08a.63.63,0,0,0,.37.57,3.58,3.58,0,0,0,.88.37l1,.3a1.85,1.85,0,0,1,.88.57,1.6,1.6,0,0,1,.36,1.08,1.65,1.65,0,0,1-.66,1.37,2.64,2.64,0,0,1-1.69.52,3,3,0,0,1-1.58-.41,2.25,2.25,0,0,1-.93-1.07l.94-.54a1.35,1.35,0,0,0,.57.72,1.8,1.8,0,0,0,1,.27,1.72,1.72,0,0,0,.89-.21.71.71,0,0,0,.35-.65.65.65,0,0,0-.36-.58,4.23,4.23,0,0,0-.88-.38l-1-.31a2,2,0,0,1-.89-.55,1.51,1.51,0,0,1-.36-1,1.67,1.67,0,0,1,.63-1.34,2.44,2.44,0,0,1,1.59-.53,2.68,2.68,0,0,1,1.37.34,2.27,2.27,0,0,1,.9,1l-.92.51a1.32,1.32,0,0,0-1.35-.8,1.43,1.43,0,0,0-.79.21A.69.69,0,0,0,268.11,279.08Z"/><path class="d" d="M277,277.4h1.17l-2.57,6.68a3.57,3.57,0,0,1-1.12,1.63,2.37,2.37,0,0,1-1.67.5v-1c.77.06,1.33-.37,1.69-1.29l.12-.23-2.74-6.27h1.17l2.1,4.83Z"/><path class="d" d="M281.79,283.86a3.31,3.31,0,1,1,1.68-6.17,2.72,2.72,0,0,1,1.1,1.2l-.91.53a1.87,1.87,0,0,0-.74-.81,2.27,2.27,0,0,0-2.71.34,2.19,2.19,0,0,0-.63,1.6,2.19,2.19,0,0,0,2.21,2.23,2.21,2.21,0,0,0,1.14-.3,2,2,0,0,0,.76-.8l.94.54a3.08,3.08,0,0,1-1.16,1.19A3.23,3.23,0,0,1,281.79,283.86Z"/><path class="d" d="M285.71,283.69v-9.18h1.09v9.18Z"/><path class="d" d="M289.24,281.05a2.08,2.08,0,0,0,.78,1.31,2.38,2.38,0,0,0,1.5.47,2,2,0,0,0,1.81-.92l.93.53a3.08,3.08,0,0,1-2.77,1.42,3.31,3.31,0,0,1-2.43-.94,3.21,3.21,0,0,1-.94-2.37,3.27,3.27,0,0,1,.92-2.37,3.17,3.17,0,0,1,2.38-.94,2.91,2.91,0,0,1,2.26,1,3.42,3.42,0,0,1,.87,2.35,2.77,2.77,0,0,1,0,.49Zm2.18-2.78a2.16,2.16,0,0,0-1.46.5,2.11,2.11,0,0,0-.72,1.32h4.2a2.06,2.06,0,0,0-.7-1.35A2,2,0,0,0,291.42,278.27Z"/><path class="d" d="M302.19,275.78c-1.11-.09-1.66.39-1.66,1.43v.19h1.66v1.06h-1.66v5.23h-1.1v-5.23h-1V277.4h1v-.19a2.51,2.51,0,0,1,.71-1.92,2.64,2.64,0,0,1,2.05-.57Z"/><path class="d" d="M307.89,277.4H309v6.29h-1.09v-1.08a2.68,2.68,0,0,1-2.38,1.25,3,3,0,0,1-2.25-1,3.42,3.42,0,0,1,0-4.69,3,3,0,0,1,2.25-1,2.67,2.67,0,0,1,2.38,1.24Zm-2.24,5.4a2.2,2.2,0,0,0,2.24-2.25,2.24,2.24,0,0,0-.64-1.61,2.18,2.18,0,0,0-1.6-.64,2.16,2.16,0,0,0-1.59.64,2.2,2.2,0,0,0-.64,1.61,2.2,2.2,0,0,0,2.23,2.25Z"/><path class="d" d="M317.44,277.24a2.29,2.29,0,0,1,1.71.68,2.62,2.62,0,0,1,.65,1.86v3.91h-1.09v-3.87a1.57,1.57,0,0,0-.38-1.13,1.32,1.32,0,0,0-1-.41,1.43,1.43,0,0,0-1.12.47,2.15,2.15,0,0,0-.42,1.45v3.49h-1.1v-3.87a1.61,1.61,0,0,0-.36-1.13,1.23,1.23,0,0,0-1-.41,1.52,1.52,0,0,0-1.15.48,2,2,0,0,0-.46,1.44v3.49h-1.1V277.4h1.1v.85a2.07,2.07,0,0,1,1.87-1,2,2,0,0,1,1.85,1.07A2.18,2.18,0,0,1,317.44,277.24Z"/><path class="d" d="M321.88,276.26a.73.73,0,0,1-.74-.73.72.72,0,0,1,.21-.52.69.69,0,0,1,.53-.22.67.67,0,0,1,.51.22.69.69,0,0,1,.22.52.75.75,0,0,1-.73.73Zm-.56,7.43V277.4h1.1v6.29Z"/><path class="d" d="M324.09,283.69v-9.18h1.1v9.18Z"/><path class="d" d="M331.25,277.4h1.17l-2.57,6.68a3.57,3.57,0,0,1-1.12,1.63,2.36,2.36,0,0,1-1.67.5v-1c.77.06,1.33-.37,1.69-1.29l.12-.23-2.74-6.27h1.17l2.1,4.83Z"/><path class="d" d="M334,283.83a.82.82,0,0,1-.82-.82.76.76,0,0,1,.24-.57.82.82,0,0,1,1.4.57.82.82,0,0,1-.23.58A.79.79,0,0,1,334,283.83Zm-.41-2.72-.24-3.71v-2.51h1.32v2.51l-.24,3.71Z"/></svg>