<svg xmlns="http://www.w3.org/2000/svg" width="500" height="500" viewBox="0 0 500 500"><defs><style>.a{fill:#f4ffe6;}.b{fill:#91ff50;}.c{fill:none;stroke:#fff;stroke-linecap:round;stroke-linejoin:round;stroke-width:5px;}.d{fill:orange;}.e{fill:#ffdd67;}.f{opacity:0.8;isolation:isolate;}.g{fill:#ff717f;}.h{fill:#664e27;}</style></defs><title>success msg2</title><rect class="a" x="42" y="137.5" width="416" height="223" rx="29.07"/><circle class="b" cx="249.5" cy="137.75" r="60"/><polyline class="c" points="273.5 121.75 241.5 153.75 225.5 137.75"/><path class="d" d="M59.05,219.93h9l6.49,26.28,7.24-26.28h7L96,246.21l6.49-26.28h9l-10.35,37.54H91.39l-6.12-22.15-6.11,22.15H69.4Z"/><path class="d" d="M125.39,251a7,7,0,0,0,5.15-2l6.43,3.7c-2.62,3.65-6.59,5.52-11.69,5.52-9.17,0-14.85-6.16-14.85-14.16s5.79-14.16,14.26-14.16c7.83,0,13.63,6.07,13.63,14.16a15.22,15.22,0,0,1-.33,3.22H119C120,250.07,122.44,251,125.39,251Zm4.93-9.77a5.51,5.51,0,0,0-5.68-4.23c-3.06,0-5.1,1.5-5.85,4.23Z"/><path class="d" d="M142.87,218.32h8v39.15h-8Z"/><path class="d" d="M155.48,244.06a14.18,14.18,0,0,1,26.33-7.29l-7,4.08a5.55,5.55,0,0,0-5.2-3,6.23,6.23,0,0,0,0,12.45,5.49,5.49,0,0,0,5.2-3l7,4a13.69,13.69,0,0,1-12.12,6.92A13.89,13.89,0,0,1,155.48,244.06Z"/><path class="d" d="M183.15,244.06a14.22,14.22,0,1,1,14.21,14.16A14.06,14.06,0,0,1,183.15,244.06Zm20.38,0a6.17,6.17,0,1,0-6.17,6.33A6,6,0,0,0,203.53,244.06Z"/><path class="d" d="M256.36,241v16.46h-8.05V241.7c0-2.68-1.28-4.39-3.86-4.39s-4.18,1.87-4.18,5v15.12h-8.05V241.7c0-2.68-1.28-4.39-3.86-4.39s-4.18,1.87-4.18,5v15.12h-8.05V230.66h8.05v2.46c1.23-1.82,3.59-3.22,7.18-3.22a8,8,0,0,1,7,3.54c1.5-2.14,4-3.54,7.78-3.54C252.33,229.9,256.36,234.3,256.36,241Z"/><path class="d" d="M275.5,251a7,7,0,0,0,5.15-2l6.44,3.7c-2.63,3.65-6.6,5.52-11.69,5.52-9.18,0-14.86-6.16-14.86-14.16s5.79-14.16,14.27-14.16c7.83,0,13.62,6.07,13.62,14.16a15.91,15.91,0,0,1-.32,3.22h-19C270.09,250.07,272.55,251,275.5,251Zm4.94-9.77a5.52,5.52,0,0,0-5.69-4.23c-3.06,0-5.09,1.5-5.84,4.23Z"/><path class="d" d="M334.55,246.48c0,6.65-5.42,11-12.12,11H306.66V219.93h14.7c6.54,0,11.85,4.24,11.85,10.73a9.38,9.38,0,0,1-3.27,7.34A9.7,9.7,0,0,1,334.55,246.48ZM315.24,228v6.65h6.12a3.33,3.33,0,0,0,0-6.65ZM326,245.83a3.39,3.39,0,0,0-3.54-3.59h-7.19v7.19h7.19A3.39,3.39,0,0,0,326,245.83Z"/><path class="d" d="M366.62,230.66v26.81h-8V255a10.07,10.07,0,0,1-8,3.27c-7,0-12.82-6.16-12.82-14.16s5.79-14.16,12.82-14.16a10.07,10.07,0,0,1,8,3.28v-2.52Zm-8,13.4c0-4-2.68-6.54-6.38-6.54a6.12,6.12,0,0,0-6.39,6.54c0,4,2.68,6.55,6.39,6.55S358.58,248.09,358.58,244.06Z"/><path class="d" d="M371.18,244.06a14.18,14.18,0,0,1,26.33-7.29l-7,4.08a5.55,5.55,0,0,0-5.2-3,6.23,6.23,0,0,0,0,12.45,5.5,5.5,0,0,0,5.2-3l7,4a13.66,13.66,0,0,1-12.12,6.92A13.89,13.89,0,0,1,371.18,244.06Z"/><path class="d" d="M417.36,257.47l-8.58-11.85v11.85h-8V219.93h8V242.4l8-11.74h9.39l-9.76,13.4,10,13.41Z"/><path class="d" d="M428.89,253.13a5.1,5.1,0,1,1,5.09,5.09A5.13,5.13,0,0,1,428.89,253.13Zm.26-22.47V219.93h9.66v10.73l-1.61,13.4h-6.44Z"/><path class="d" d="M200.68,283.69l-2.46-8.8h1.23l2,7.24,2.14-7.24h1.18l2.14,7.24,2-7.24h1.17l-2.46,8.8h-1.36l-2.1-7.05-2.09,7.05Z"/><path class="d" d="M211.33,281.05a2.11,2.11,0,0,0,.77,1.31,2.43,2.43,0,0,0,1.51.47,2,2,0,0,0,1.81-.92l.93.53a3.08,3.08,0,0,1-2.77,1.42,3.29,3.29,0,0,1-2.43-.94,3.21,3.21,0,0,1-.94-2.37,3.27,3.27,0,0,1,.92-2.37,3.16,3.16,0,0,1,2.38-.94,2.91,2.91,0,0,1,2.26,1,3.42,3.42,0,0,1,.87,2.35,2.77,2.77,0,0,1,0,.49Zm2.18-2.78a2.16,2.16,0,0,0-1.46.5,2.11,2.11,0,0,0-.72,1.32h4.2a2.06,2.06,0,0,0-.7-1.35A2,2,0,0,0,213.51,278.27Z"/><path class="d" d="M227.84,277.24a2.29,2.29,0,0,1,1.71.68,2.57,2.57,0,0,1,.65,1.86v3.91h-1.09v-3.87a1.57,1.57,0,0,0-.38-1.13,1.31,1.31,0,0,0-1-.41,1.46,1.46,0,0,0-1.13.47,2.15,2.15,0,0,0-.42,1.45v3.49h-1.1v-3.87a1.61,1.61,0,0,0-.36-1.13,1.22,1.22,0,0,0-1-.41,1.52,1.52,0,0,0-1.15.48,2,2,0,0,0-.46,1.44v3.49H221V277.4h1.1v.85a2.07,2.07,0,0,1,1.87-1,2,2,0,0,1,1.85,1.07A2.18,2.18,0,0,1,227.84,277.24Z"/><path class="d" d="M232.28,276.26a.73.73,0,0,1-.74-.73.72.72,0,0,1,.21-.52.69.69,0,0,1,.53-.22.7.7,0,0,1,.52.22.72.72,0,0,1,.21.52.69.69,0,0,1-.21.51A.7.7,0,0,1,232.28,276.26Zm-.55,7.43V277.4h1.09v6.29Z"/><path class="d" d="M235.42,279.08a.65.65,0,0,0,.37.57,3.84,3.84,0,0,0,.89.37l1,.3a1.85,1.85,0,0,1,.88.57A1.6,1.6,0,0,1,239,282a1.65,1.65,0,0,1-.66,1.37,2.65,2.65,0,0,1-1.7.52,2.94,2.94,0,0,1-1.57-.41,2.2,2.2,0,0,1-.93-1.07l.94-.54a1.31,1.31,0,0,0,.57.72,1.79,1.79,0,0,0,1,.27,1.74,1.74,0,0,0,.9-.21.71.71,0,0,0,.35-.65.64.64,0,0,0-.37-.58,3.92,3.92,0,0,0-.87-.38l-1-.31a2,2,0,0,1-.89-.55,1.51,1.51,0,0,1-.36-1,1.67,1.67,0,0,1,.63-1.34,2.44,2.44,0,0,1,1.59-.53,2.68,2.68,0,0,1,1.37.34,2.27,2.27,0,0,1,.9,1l-.92.51a1.33,1.33,0,0,0-1.35-.8,1.43,1.43,0,0,0-.79.21A.7.7,0,0,0,235.42,279.08Z"/><path class="d" d="M240.8,279.08a.63.63,0,0,0,.37.57,3.58,3.58,0,0,0,.88.37l1,.3a1.85,1.85,0,0,1,.88.57,1.6,1.6,0,0,1,.36,1.08,1.65,1.65,0,0,1-.66,1.37,2.64,2.64,0,0,1-1.69.52,3,3,0,0,1-1.58-.41,2.25,2.25,0,0,1-.93-1.07l.95-.54a1.34,1.34,0,0,0,.56.72,1.8,1.8,0,0,0,1,.27,1.7,1.7,0,0,0,.89-.21.7.7,0,0,0,.35-.65.65.65,0,0,0-.36-.58A4.23,4.23,0,0,0,242,281l-1-.31a2,2,0,0,1-.89-.55,1.51,1.51,0,0,1-.36-1,1.65,1.65,0,0,1,.64-1.34,2.4,2.4,0,0,1,1.59-.53,2.67,2.67,0,0,1,1.36.34,2.27,2.27,0,0,1,.9,1l-.92.51a1.31,1.31,0,0,0-1.34-.8,1.47,1.47,0,0,0-.8.21A.71.71,0,0,0,240.8,279.08Z"/><path class="d" d="M246.21,281.05a2.07,2.07,0,0,0,.77,1.31,2.42,2.42,0,0,0,1.5.47,2,2,0,0,0,1.82-.92l.93.53a3.1,3.1,0,0,1-2.77,1.42,3.33,3.33,0,0,1-2.44-.94,3.5,3.5,0,0,1,0-4.74,3.15,3.15,0,0,1,2.37-.94,2.88,2.88,0,0,1,2.26,1,3.43,3.43,0,0,1,.88,2.35,4.22,4.22,0,0,1,0,.49Zm2.17-2.78a2.19,2.19,0,0,0-1.46.5,2.15,2.15,0,0,0-.71,1.32h4.2a2.07,2.07,0,0,0-.71-1.35A2,2,0,0,0,248.38,278.27Z"/><path class="d" d="M258,274.89h1.1v8.8H258v-1.08a2.67,2.67,0,0,1-2.38,1.25,3,3,0,0,1-2.25-1,3.42,3.42,0,0,1,0-4.69,3,3,0,0,1,2.25-1,2.66,2.66,0,0,1,2.38,1.24Zm-2.24,7.91a2.2,2.2,0,0,0,2.24-2.25,2.2,2.2,0,0,0-.64-1.61,2.16,2.16,0,0,0-1.6-.64,2.12,2.12,0,0,0-1.58.64,2.21,2.21,0,0,0-.65,1.61,2.17,2.17,0,0,0,.65,1.6A2.13,2.13,0,0,0,255.73,282.8Z"/><path class="d" d="M268.26,277.4h1.17l-2.56,6.68a3.58,3.58,0,0,1-1.13,1.63,2.36,2.36,0,0,1-1.67.5v-1c.77.06,1.34-.37,1.69-1.29l.12-.23-2.74-6.27h1.17l2.1,4.83Z"/><path class="d" d="M275.41,282.9a3.31,3.31,0,0,1-5.66-2.35,3.28,3.28,0,0,1,3.31-3.31,3.22,3.22,0,0,1,2.35,1,3.33,3.33,0,0,1,0,4.7Zm-2.35-.11a2.19,2.19,0,0,0,1.58-.64,2.24,2.24,0,0,0-1.58-3.84,2.13,2.13,0,0,0-1.58.64,2.24,2.24,0,0,0,1.58,3.84Z"/><path class="d" d="M282,277.4h1.1v6.29H282v-.9a2.23,2.23,0,0,1-2,1.07,2.38,2.38,0,0,1-1.78-.7,2.66,2.66,0,0,1-.66-1.9V277.4h1.09v3.8a1.65,1.65,0,0,0,.41,1.19,1.55,1.55,0,0,0,1.15.42,1.79,1.79,0,0,0,1.32-.51,2.12,2.12,0,0,0,.5-1.56Z"/><path class="d" d="M285.46,283.83a.82.82,0,0,1-.82-.82.76.76,0,0,1,.24-.57.82.82,0,0,1,1.4.57.82.82,0,0,1-.23.58A.79.79,0,0,1,285.46,283.83Zm-.41-2.72-.24-3.71v-2.51h1.32v2.51l-.24,3.71Z"/><circle class="e" cx="295.8" cy="279.29" r="5.9"/><g class="f"><circle class="g" cx="299.5" cy="280.08" r="1.57"/></g><g class="f"><circle class="g" cx="292.1" cy="280.08" r="1.57"/></g><path class="h" d="M298.28,280.92a4.11,4.11,0,0,1-4.95,0c-.19-.14-.37.09-.24.31a3.2,3.2,0,0,0,5.42,0C298.64,281,298.47,280.78,298.28,280.92Z"/><path class="h" d="M295.12,278.28c-.37-1-.92-1.51-1.47-1.51s-1.1.5-1.46,1.51c0,.1.15.28.24.18a1.69,1.69,0,0,1,2.44,0C295,278.56,295.15,278.38,295.12,278.28Z"/><path class="h" d="M299.42,278.28c-.37-1-.92-1.51-1.47-1.51s-1.1.5-1.47,1.51c0,.1.16.28.25.18a1.69,1.69,0,0,1,2.44,0C299.27,278.56,299.45,278.38,299.42,278.28Z"/></svg>