<svg xmlns="http://www.w3.org/2000/svg" width="40" height="40" viewBox="0 0 40 40"><defs><style>.a{fill:#fff;}</style></defs><title>twitter</title><path class="a" d="M38.91,5.76a15.64,15.64,0,0,1-3.86,1.1c.62-.1,1.53-1.23,1.9-1.68a7.17,7.17,0,0,0,1.28-2.33c0-.07.06-.15,0-.2a.22.22,0,0,0-.21,0,19.45,19.45,0,0,1-4.57,1.75.29.29,0,0,1-.31-.08,5.22,5.22,0,0,0-.4-.41,8.44,8.44,0,0,0-2.22-1.36A7.71,7.71,0,0,0,27.12,2a8.1,8.1,0,0,0-3.23.91,8.31,8.31,0,0,0-2.6,2.12,8.06,8.06,0,0,0-1.55,3.11,8.42,8.42,0,0,0-.08,3.28c0,.19,0,.21-.16.19C13.22,10.69,8,8.44,3.79,3.63c-.18-.21-.28-.21-.43,0-1.85,2.77-.95,7.22,1.36,9.41.31.29.62.58,1,.85a8.12,8.12,0,0,1-3-.85c-.18-.12-.27-.05-.29.16a4.66,4.66,0,0,0,.05.9,8.07,8.07,0,0,0,5,6.42,5.13,5.13,0,0,0,1,.31,9.27,9.27,0,0,1-3,.09c-.22,0-.3.06-.22.27,1.31,3.57,4.13,4.63,6.25,5.23.28,0,.57,0,.85.12,0,0,0,0,0,.05-.7,1.07-3.13,1.86-4.27,2.26a15.35,15.35,0,0,1-6.48.83c-.34-.05-.42-.05-.51,0s0,.14.1.23c.44.29.89.55,1.35.8a21,21,0,0,0,4.33,1.73c7.78,2.15,16.55.57,22.39-5.23,4.59-4.56,6.2-10.85,6.2-17.15,0-.24.29-.38.46-.51a15,15,0,0,0,3-3.17,1,1,0,0,0,.2-.61v0C39.06,5.66,39.06,5.69,38.91,5.76Z"/></svg>